<svg width="362" height="120" viewBox="0 0 362 120" fill="none" xmlns="http://www.w3.org/2000/svg">
<path d="M23.6 29.2C27.9333 29.2 31.7333 30.1333 35 32C38.2667 33.8667 40.8 36.5 42.6 39.9C44.4 43.2333 45.3 47.1 45.3 51.5V78.5C45.3 83.3 44.2667 87.4667 42.2 91C40.1333 94.5333 37.2333 97.1333 33.5 98.8C33.1667 98.8667 33 99.1 33 99.5V107.2C33 107.667 32.8667 108.033 32.6 108.3C32.3333 108.567 31.9667 108.7 31.5 108.7H15.7C15.2333 108.7 14.8667 108.567 14.6 108.3C14.3333 108.033 14.2 107.667 14.2 107.2V99.5C14.2 99.1 14.0333 98.8667 13.7 98.8C10.0333 97.0667 7.16667 94.4333 5.1 90.9C3.03333 87.3667 2 83.2333 2 78.5V51.5C2 47.1 2.9 43.2333 4.7 39.9C6.5 36.5 9.03333 33.8667 12.3 32C15.5667 30.1333 19.3333 29.2 23.6 29.2ZM20.8 80.5C20.8 81.7667 21.0333 82.8 21.5 83.6C22.0333 84.3333 22.7333 84.7 23.6 84.7C24.4667 84.7 25.1667 84.3333 25.7 83.6C26.2333 82.8 26.5 81.7667 26.5 80.5V49.5C26.5 48.2333 26.2333 47.2333 25.7 46.5C25.1667 45.7 24.4667 45.3 23.6 45.3C22.7333 45.3 22.0333 45.7 21.5 46.5C21.0333 47.2333 20.8 48.2333 20.8 49.5V80.5ZM78.8656 31.5C78.8656 31.0333 78.999 30.6667 79.2656 30.4C79.5323 30.1333 79.899 30 80.3656 30H95.9656C96.4323 30 96.799 30.1333 97.0656 30.4C97.3323 30.6667 97.4656 31.0333 97.4656 31.5V98.5C97.4656 98.9667 97.3323 99.3333 97.0656 99.6C96.799 99.8667 96.4323 100 95.9656 100H78.1656C77.299 100 76.7656 99.5667 76.5656 98.7L68.9656 68.4C68.899 68.2 68.7656 68.1 68.5656 68.1C68.3656 68.1 68.2656 68.2333 68.2656 68.5L68.4656 98.5C68.4656 98.9667 68.3323 99.3333 68.0656 99.6C67.799 99.8667 67.4323 100 66.9656 100H51.3656C50.899 100 50.5323 99.8667 50.2656 99.6C49.999 99.3333 49.8656 98.9667 49.8656 98.5V31.5C49.8656 31.0333 49.999 30.6667 50.2656 30.4C50.5323 30.1333 50.899 30 51.3656 30H68.9656C69.8323 30 70.3656 30.4333 70.5656 31.3L78.2656 61.7C78.3323 61.9667 78.4656 62.1 78.6656 62.1C78.8656 62.1 78.9656 61.9667 78.9656 61.7L78.8656 31.5ZM143.617 100.8C139.351 100.8 135.617 100 132.417 98.4C129.217 96.8 126.717 94.6 124.917 91.8C123.184 88.9333 122.317 85.6667 122.317 82V78.9C122.317 78.4333 122.451 78.0667 122.717 77.8C122.984 77.5333 123.351 77.4 123.817 77.4H139.417C139.884 77.4 140.251 77.5333 140.517 77.8C140.784 78.0667 140.917 78.4333 140.917 78.9V81.1C140.917 82.1667 141.184 83.0333 141.717 83.7C142.251 84.3667 142.917 84.7 143.717 84.7C144.517 84.7 145.184 84.4 145.717 83.8C146.251 83.2 146.517 82.4333 146.517 81.5C146.517 80.3667 145.984 79.2667 144.917 78.2C143.851 77.0667 141.617 75.3 138.217 72.9C134.884 70.5667 132.117 68.4333 129.917 66.5C127.784 64.5667 125.917 62.1333 124.317 59.2C122.717 56.2667 121.917 52.9 121.917 49.1C121.917 45.1667 122.784 41.7 124.517 38.7C126.317 35.7 128.817 33.3667 132.017 31.7C135.284 30.0333 139.017 29.2 143.217 29.2C147.484 29.2 151.217 30.0333 154.417 31.7C157.684 33.3667 160.184 35.7 161.917 38.7C163.717 41.7 164.617 45.1667 164.617 49.1V51.3C164.617 51.7667 164.484 52.1333 164.217 52.4C163.951 52.6667 163.584 52.8 163.117 52.8H147.617C147.151 52.8 146.784 52.6667 146.517 52.4C146.251 52.1333 146.117 51.7667 146.117 51.3V48.7C146.117 47.7 145.851 46.9 145.317 46.3C144.784 45.6333 144.084 45.3 143.217 45.3C142.351 45.3 141.651 45.6333 141.117 46.3C140.651 46.9667 140.417 47.8667 140.417 49C140.417 50.3333 140.951 51.6333 142.017 52.9C143.084 54.1 145.217 55.8667 148.417 58.2C152.684 61.3333 155.884 63.8667 158.017 65.8C160.217 67.7333 161.917 69.9333 163.117 72.4C164.384 74.8 165.017 77.6333 165.017 80.9C165.017 86.9667 163.051 91.8 159.117 95.4C155.184 99 150.017 100.8 143.617 100.8ZM192.806 30C196.806 30 200.34 30.9667 203.406 32.9C206.54 34.7667 208.973 37.4 210.706 40.8C212.44 44.2 213.306 48.1 213.306 52.5C213.306 56.7667 212.473 60.5333 210.806 63.8C209.206 67.0667 206.94 69.6 204.006 71.4C201.073 73.1333 197.673 74 193.806 74H188.206C187.806 74 187.606 74.2 187.606 74.6V98.5C187.606 98.9667 187.473 99.3333 187.206 99.6C186.94 99.8667 186.573 100 186.106 100H170.306C169.84 100 169.473 99.8667 169.206 99.6C168.94 99.3333 168.806 98.9667 168.806 98.5V31.5C168.806 31.0333 168.94 30.6667 169.206 30.4C169.473 30.1333 169.84 30 170.306 30H192.806ZM189.506 59.5C191.04 59.5 192.24 58.9667 193.106 57.9C194.04 56.7667 194.506 55.1 194.506 52.9C194.506 50.7 194.04 49.0333 193.106 47.9C192.24 46.7 191.04 46.1 189.506 46.1H188.206C187.806 46.1 187.606 46.3 187.606 46.7V58.9C187.606 59.3 187.806 59.5 188.206 59.5H189.506ZM238.751 100.8C232.017 100.8 226.617 98.8667 222.551 95C218.551 91.1333 216.551 85.9333 216.551 79.4V50.6C216.551 44.0667 218.551 38.8667 222.551 35C226.617 31.1333 232.017 29.2 238.751 29.2C245.484 29.2 250.851 31.1333 254.851 35C258.917 38.8667 260.951 44.0667 260.951 50.6V79.4C260.951 85.9333 258.917 91.1333 254.851 95C250.851 98.8667 245.484 100.8 238.751 100.8ZM238.751 84.7C239.817 84.7 240.651 84.3 241.251 83.5C241.851 82.7 242.151 81.6 242.151 80.2V49.8C242.151 48.4 241.851 47.3 241.251 46.5C240.651 45.7 239.817 45.3 238.751 45.3C237.684 45.3 236.851 45.7 236.251 46.5C235.651 47.3 235.351 48.4 235.351 49.8V80.2C235.351 81.6 235.651 82.7 236.251 83.5C236.851 84.3 237.684 84.7 238.751 84.7ZM292.888 100C292.022 100 291.488 99.5667 291.288 98.7L285.188 73.6C285.055 73.2667 284.922 73.1 284.788 73.1C284.522 73.1 284.388 73.3 284.388 73.7V98.5C284.388 98.9667 284.255 99.3333 283.988 99.6C283.722 99.8667 283.355 100 282.888 100H267.088C266.622 100 266.255 99.8667 265.988 99.6C265.722 99.3333 265.588 98.9667 265.588 98.5V31.5C265.588 31.0333 265.722 30.6667 265.988 30.4C266.255 30.1333 266.622 30 267.088 30H289.588C293.588 30 297.122 30.9667 300.188 32.9C303.322 34.7667 305.755 37.4 307.488 40.8C309.222 44.1333 310.088 47.9667 310.088 52.3C310.088 55.9667 309.455 59.2667 308.188 62.2C306.922 65.0667 305.088 67.4 302.688 69.2C302.422 69.4 302.322 69.6667 302.388 70L310.488 98.3C310.555 98.4333 310.588 98.6 310.588 98.8C310.588 99.6 310.122 100 309.188 100H292.888ZM284.988 46.1C284.588 46.1 284.388 46.3 284.388 46.7V58.2C284.388 58.6 284.588 58.8 284.988 58.8H286.288C287.755 58.8 288.955 58.2667 289.888 57.2C290.822 56.0667 291.288 54.5 291.288 52.5C291.288 50.4333 290.822 48.8667 289.888 47.8C289.022 46.6667 287.822 46.1 286.288 46.1H284.988ZM358.612 30C359.078 30 359.445 30.1333 359.712 30.4C359.978 30.6667 360.112 31.0333 360.112 31.5V44.6C360.112 45.0667 359.978 45.4333 359.712 45.7C359.445 45.9667 359.078 46.1 358.612 46.1H346.812C346.412 46.1 346.212 46.3 346.212 46.7V98.5C346.212 98.9667 346.078 99.3333 345.812 99.6C345.545 99.8667 345.178 100 344.712 100H328.912C328.445 100 328.078 99.8667 327.812 99.6C327.545 99.3333 327.412 98.9667 327.412 98.5V46.7C327.412 46.3 327.212 46.1 326.812 46.1H315.312C314.845 46.1 314.478 45.9667 314.212 45.7C313.945 45.4333 313.812 45.0667 313.812 44.6V31.5C313.812 31.0333 313.945 30.6667 314.212 30.4C314.478 30.1333 314.845 30 315.312 30H358.612Z" fill="black"/>
<circle cx="101.5" cy="33.5" r="13.5" fill="#46FF7A" stroke="white" stroke-width="2"/>
</svg>
